<svg width="31" height="42" viewBox="0 0 31 42" fill="none" xmlns="http://www.w3.org/2000/svg">
<path d="M13.3398 39.1523C13.3398 40.2569 14.2353 41.1523 15.3398 41.1523C16.4444 41.1523 17.3398 40.2569 17.3398 39.1523H13.3398ZM16.7541 0.756996C15.973 -0.0240517 14.7067 -0.0240517 13.9256 0.756996L1.19771 13.4849C0.416659 14.266 0.416659 15.5323 1.19771 16.3133C1.97876 17.0944 3.24509 17.0944 4.02614 16.3133L15.3398 4.99964L26.6536 16.3133C27.4346 17.0944 28.7009 17.0944 29.482 16.3133C30.263 15.5323 30.263 14.266 29.482 13.4849L16.7541 0.756996ZM17.3398 39.1523L17.3398 2.17121H13.3398L13.3398 39.1523H17.3398Z" fill="white"/>
</svg>
