<svg width="37" height="24" viewBox="0 0 37 24" fill="none" xmlns="http://www.w3.org/2000/svg">
<path d="M35.0957 13.5C35.9241 13.5 36.5957 12.8284 36.5957 12C36.5957 11.1716 35.9241 10.5 35.0957 10.5V13.5ZM1.03504 10.9393C0.449257 11.5251 0.449257 12.4749 1.03504 13.0607L10.581 22.6066C11.1668 23.1924 12.1165 23.1924 12.7023 22.6066C13.2881 22.0208 13.2881 21.0711 12.7023 20.4853L4.21702 12L12.7023 3.51472C13.2881 2.92893 13.2881 1.97919 12.7023 1.3934C12.1165 0.807611 11.1668 0.807611 10.581 1.3934L1.03504 10.9393ZM35.0957 10.5H2.0957V13.5H35.0957V10.5Z" fill="#E97522"/>
</svg>
