<?xml version="1.0" encoding="UTF-8"?>
<svg xmlns="http://www.w3.org/2000/svg" xmlns:xlink="http://www.w3.org/1999/xlink" viewBox="0 0 20 20" width="20px" height="20px">
<g id="surface137698828">
<rect x="0" y="0" width="20" height="20" style="fill:rgb(100%,100%,100%);fill-opacity:1;stroke:none;"/>
<path style=" stroke:none;fill-rule:nonzero;fill:rgb(92.941177%,42.352942%,12.941177%);fill-opacity:1;" d="M 2.382812 18.75 C 1.757812 18.75 1.25 18.242188 1.25 17.617188 L 1.25 2.382812 C 1.25 1.757812 1.757812 1.25 2.382812 1.25 L 17.617188 1.25 C 18.242188 1.25 18.75 1.757812 18.75 2.382812 L 18.75 17.617188 C 18.75 18.242188 18.242188 18.75 17.617188 18.75 Z M 2.382812 18.75 "/>
<path style=" stroke:none;fill-rule:nonzero;fill:rgb(78.039217%,78.039217%,78.039217%);fill-opacity:1;" d="M 17.617188 1.5 C 18.101562 1.5 18.5 1.898438 18.5 2.382812 L 18.5 17.617188 C 18.5 18.101562 18.101562 18.5 17.617188 18.5 L 2.382812 18.5 C 1.898438 18.5 1.5 18.101562 1.5 17.617188 L 1.5 2.382812 C 1.5 1.898438 1.898438 1.5 2.382812 1.5 L 17.617188 1.5 M 17.617188 1 L 2.382812 1 C 1.621094 1 1 1.621094 1 2.382812 L 1 17.617188 C 1 18.378906 1.621094 19 2.382812 19 L 17.617188 19 C 18.378906 19 19 18.378906 19 17.617188 L 19 2.382812 C 19 1.621094 18.378906 1 17.617188 1 Z M 17.617188 1 "/>
<path style="fill:none;stroke-width:3;stroke-linecap:butt;stroke-linejoin:miter;stroke:rgb(100%,100%,100%);stroke-opacity:1;stroke-miterlimit:10;" d="M 11 20.054687 L 16.960937 26.015625 L 30.382812 12.601562 " transform="matrix(0.5,0,0,0.5,0,0)"/>
</g>
</svg>
