<svg width="274" height="30" viewBox="0 0 274 30" fill="none" xmlns="http://www.w3.org/2000/svg">
<path d="M113.687 0.621094L121.185 0.621094L121.185 29.3766H113.687L113.687 13.8853L106.492 25.4464H105.753L98.6252 13.9508L98.6252 29.3766H91.0605L91.0605 0.621094H98.6252L106.123 12.9028L113.687 0.621094Z" fill="white" fill-opacity="0.9"/>
<path d="M19.4152 0.621094H10.2031L0.453125 29.3766H8.65657L9.93416 25.2172H19.7514L21.029 29.3766H29.1652L19.4152 0.621094ZM11.8505 18.8962L14.8092 9.10363L17.8014 18.8962H11.8505Z" fill="white" fill-opacity="0.9"/>
<path d="M43.319 0.621094L31.3164 0.621094L31.3164 19.715H39.0828L39.0828 7.72808H43.3526C45.4035 7.72808 47.0845 8.3831 48.3621 9.7259C49.6397 11.0687 50.3121 12.8045 50.3121 14.9988C50.3121 17.1931 49.6733 18.9617 48.3621 20.2718C47.0509 21.6145 45.4035 22.2696 43.3526 22.2696H42.613H39.1164H31.3164L31.3164 29.3766H43.3526C47.4207 29.3766 50.85 28.001 53.5733 25.2499C56.3302 22.4988 57.675 19.0927 57.675 14.9988C57.675 10.9049 56.2966 7.49882 53.5733 4.74773C50.8164 1.99664 47.4207 0.621094 43.319 0.621094Z" fill="white" fill-opacity="0.9"/>
<path d="M73.2081 0.621094L61.1719 0.621094V7.72808H68.9383H71.9641H73.2081C75.2589 7.72808 76.94 8.3831 78.2176 9.7259C79.4951 11.0687 80.1676 12.8045 80.1676 14.9988C80.1676 17.1931 79.5288 18.9617 78.2176 20.2717C76.9064 21.6145 75.2589 22.2696 73.2081 22.2696H68.9383L68.9383 10.2827H61.1719L61.1719 29.3766H73.2081C77.2762 29.3766 80.7055 28.001 83.4288 25.2499C86.1857 22.4988 87.5305 19.0927 87.5305 14.9988C87.5305 10.9049 86.152 7.49882 83.4288 4.74773C80.7055 1.99664 77.2762 0.621094 73.2081 0.621094Z" fill="white" fill-opacity="0.9"/>
<path d="M227.662 7.72808H234.958V29.3766H242.522V7.72808H249.818V0.621094L227.662 0.621094V7.72808Z" fill="white" fill-opacity="0.9"/>
<path d="M272.68 17.2926C272.176 16.2445 271.403 15.3603 270.36 14.7052C269.318 14.0502 268.377 13.5262 267.503 13.1659C266.628 12.8057 265.485 12.4127 264.04 12.0197C262.056 11.4301 260.711 10.9389 260.005 10.5131C259.299 10.0873 258.963 9.53057 258.963 8.9083C258.963 8.35153 259.198 7.89301 259.669 7.5655C260.14 7.20524 260.812 7.04148 261.72 7.04148C263.872 7.04148 265.384 8.12227 266.326 10.2511L272.647 6.64847C271.638 4.51965 270.159 2.8821 268.242 1.76856C266.359 0.556769 264.14 0 261.686 0C258.761 0 256.307 0.818777 254.357 2.45633C252.407 4.09389 251.432 6.25546 251.432 8.9083C251.432 11.3646 252.205 13.2969 253.785 14.6725C255.365 16.048 257.484 17.1288 260.207 17.9148C262.123 18.4389 263.367 18.7991 263.905 19.0284C265.216 19.5524 265.889 20.2402 265.889 21.0917C265.889 22.369 264.746 23.024 262.426 23.024C259.635 23.024 257.685 21.7467 256.609 19.1921L250.154 22.8603C250.961 25.0546 252.407 26.7904 254.458 28.0677C256.509 29.345 259.097 30 262.224 30C265.586 30 268.309 29.214 270.36 27.6092C272.411 26.0044 273.453 23.81 273.453 20.9935C273.453 19.5852 273.184 18.3406 272.68 17.2926Z" fill="white" fill-opacity="0.9"/>
<path d="M142.298 0.621094H133.086L123.336 29.4093H131.539L132.817 25.2499H142.634L143.912 29.4093H152.048L142.298 0.621094ZM134.733 18.8962L137.692 9.10363L140.684 18.8962H134.733Z" fill="white" fill-opacity="0.9"/>
<path d="M214.549 18.2412H224.702V11.4617H214.549V7.46607H225.745V0.621094L206.984 0.621094V29.3766H225.98V22.4988H214.549V18.2412Z" fill="white" fill-opacity="0.9"/>
<path d="M204.396 0.621094H195.957L187.922 12.7062V0.621094H180.357V29.3766H187.922V16.5381L196.395 29.3766H204.833L195.05 14.6058L204.396 0.621094Z" fill="white" fill-opacity="0.9"/>
<path d="M171.617 18.7339C173.164 17.8824 174.374 16.7361 175.282 15.2951C176.19 13.854 176.627 12.282 176.627 10.5462C176.627 7.66408 175.618 5.306 173.567 3.40644C171.516 1.53963 168.995 0.589844 166.002 0.589844H165.532H164.355L161.733 0.589844H156.656H154.168V29.3781H161.733V20.1095H164.422L169.566 29.4108H177.669L171.617 18.7339ZM168.188 13.0025C167.583 13.592 166.843 13.8868 165.902 13.854H161.733V11.9872V7.40207H164.355H165.532H165.902C166.843 7.40207 167.583 7.69683 168.188 8.3191C168.793 8.90862 169.062 9.69465 169.062 10.6772C169.096 11.5942 168.793 12.3802 168.188 13.0025Z" fill="white" fill-opacity="0.9"/>
</svg>
