<svg width="18" height="21" viewBox="0 0 18 21" fill="none" xmlns="http://www.w3.org/2000/svg">
<path d="M10.9167 12.7827H5.75V15.1556H13.75V17.1457H5.75V20.6667H2.75V17.1457H0V15.1556H2.75V12.7827H0V10.2568H2.75V0H10.9167C12.8333 0 14.5 0.612346 15.9167 1.91358C17.3333 3.21481 18 4.66914 18 6.42963C18 8.19012 17.3333 9.72099 15.9167 10.9457C14.5 12.1704 12.9167 12.7827 10.9167 12.7827ZM5.75 2.60247V10.3333H10.9167C12 10.3333 13 9.95062 13.8333 9.18518C14.6667 8.41975 15.0833 7.50123 15.0833 6.42963C15.0833 5.35802 14.6667 4.43951 13.9167 3.67407C13.0833 2.90864 12.1667 2.52593 11 2.52593H5.75V2.60247Z" fill="white"/>
</svg>
