<svg width="114" height="113" viewBox="0 0 114 113" fill="none" xmlns="http://www.w3.org/2000/svg">
<path d="M89.1344 80.4646C102.371 62.4959 98.5353 37.2044 80.5665 23.9744C62.5976 10.7444 37.3003 14.5859 24.0633 32.5546C10.8264 50.5233 14.6623 75.8149 32.6312 89.0449C50.6001 102.275 75.8974 98.4334 89.1344 80.4646Z" fill="#585858"/>
<path d="M83.1133 44.4078C82.5672 42.3867 80.4649 41.1612 78.3834 41.4773L64.6199 43.5674C63.8654 43.6819 63.2345 43.032 63.3881 42.2896C63.9787 39.1637 64.3713 35.9614 64.2097 32.7899C64.0497 29.8046 63.2272 25.9612 60.0463 24.8196C58.6688 24.3363 56.5463 24.2059 55.2581 25.014C54.0662 25.7543 54.8007 27.6137 54.9626 28.681C55.2074 30.2951 54.8159 31.9259 54.5506 33.511C53.3393 35.8788 52.3259 38.3232 51.1407 40.6871C50.0941 42.737 48.8821 45.4512 46.5674 46.3353C45.4842 46.7395 44.7678 47.8071 44.9455 48.9786L48.8782 74.9082C49.0796 76.2359 50.3082 77.1413 51.6351 76.9398L55.6419 76.3313L65.0864 74.8971L75.8838 73.2575C77.9652 72.9414 79.6095 71.147 79.5278 69.0288C79.4612 67.361 78.4595 66.0216 77.0622 65.4082L77.0583 65.3822L77.1103 65.3743C79.1918 65.0582 80.836 63.2638 80.7543 61.1455C80.6877 59.4777 79.686 58.1384 78.2887 57.5249L78.2848 57.4989L78.3368 57.491C80.4443 57.171 82.0586 55.3545 81.9769 53.2362C81.9102 51.5684 80.8786 50.207 79.4853 49.6196L79.7194 49.584C82.1691 49.2387 83.7746 46.8376 83.1133 44.4078Z" fill="white"/>
<path d="M40.0659 47.6963L29.1902 49.3463C28.0714 49.5161 27.2731 50.5694 27.447 51.7148L31.4266 77.9302C31.5965 79.0496 32.6494 79.8487 33.7942 79.675L44.6699 78.0249C45.7887 77.8552 46.5871 76.8019 46.4132 75.6564L42.4336 49.4411C42.2337 48.2995 41.1847 47.5265 40.0659 47.6963Z" fill="white"/>
</svg>
