<svg width="456" height="394" viewBox="0 0 456 394" fill="none" xmlns="http://www.w3.org/2000/svg">
<path d="M0 139.352H363.677V377.979C363.679 380.082 363.263 382.164 362.454 384.106C361.645 386.047 360.459 387.808 358.965 389.288C355.938 392.29 351.853 393.982 347.591 394H16.2486C11.986 393.982 7.90107 392.29 4.87459 389.288C3.3505 387.822 2.1343 386.067 1.29727 384.125C0.460236 382.183 0.0191986 380.093 0 377.979L0 139.352Z" fill="#E8F0F9"/>
<path d="M339.53 139.352V377.979C339.47 382.249 337.732 386.323 334.691 389.322C331.65 392.32 327.552 394 323.281 394H347.719C351.982 393.982 356.067 392.29 359.093 389.288C360.588 387.808 361.774 386.047 362.583 384.106C363.392 382.164 363.807 380.082 363.805 377.979V139.352H339.53Z" fill="#D2E2EB"/>
<path d="M363.677 139.351H0V89.6955C0.000881825 87.588 0.417548 85.5014 1.22613 83.5552C2.03471 81.6091 3.21932 79.8415 4.7121 78.3539C6.23303 76.8538 8.03484 75.6684 10.0144 74.8654C11.994 74.0624 14.1125 73.6577 16.2486 73.6743H347.721C351.979 73.6836 356.063 75.364 359.095 78.3539C360.587 79.8415 361.772 81.6091 362.581 83.5552C363.389 85.5014 363.806 87.588 363.807 89.6955L363.677 139.351Z" fill="#306694"/>
<path d="M347.723 73.6745H323.447C325.57 73.6443 327.678 74.0365 329.648 74.8281C331.618 75.6197 333.411 76.795 334.923 78.2858C336.435 79.7765 337.636 81.5528 338.455 83.5116C339.274 85.4703 339.696 87.5724 339.696 89.6956V139.351H363.841V89.6956C363.84 87.5881 363.424 85.5016 362.615 83.5554C361.807 81.6092 360.622 79.8417 359.129 78.3541C356.09 75.3563 351.992 73.6752 347.723 73.6745Z" fill="white" fill-opacity="0.12"/>
<path d="M45.0703 357.15V11.2165C45.0703 9.74142 45.3614 8.28086 45.9268 6.91849C46.4923 5.55612 47.321 4.31872 48.3656 3.27721C49.4101 2.23569 50.6499 1.41053 52.0139 0.849013C53.3779 0.287494 54.8393 0.000654378 56.3144 0.00492991H307.356C310.335 0.00488042 313.194 1.18402 315.306 3.28474C317.419 5.38547 318.615 8.23703 318.632 11.2165V357.15C318.636 358.624 318.337 360.084 317.755 361.439C316.611 364.188 314.426 366.372 311.678 367.516C310.305 368.074 308.837 368.361 307.356 368.361H56.3144C54.8435 368.357 53.3872 368.07 52.0247 367.516C50.6506 366.956 49.4022 366.128 48.3525 365.079C47.3047 364.041 46.4758 362.803 45.9152 361.439C45.3581 360.078 45.0711 358.621 45.0703 357.15Z" fill="white"/>
<path d="M307.358 0.0037981H291.109C292.586 -0.00874006 294.05 0.272074 295.416 0.829939C296.783 1.3878 298.025 2.21161 299.071 3.25352C300.119 4.29138 300.948 5.52907 301.508 6.89321C302.078 8.25098 302.366 9.71046 302.353 11.1829V357.149C302.368 358.621 302.081 360.081 301.508 361.438C300.434 364.132 298.362 366.309 295.724 367.515C294.351 368.072 292.884 368.359 291.402 368.36H307.65C309.132 368.359 310.6 368.072 311.973 367.515C314.721 366.371 316.906 364.187 318.05 361.438C318.632 360.083 318.931 358.623 318.927 357.149V11.2153C318.919 9.71503 318.611 8.23143 318.023 6.85144C317.434 5.47145 316.576 4.22282 315.498 3.1787C314.421 2.13458 313.146 1.31595 311.748 0.770785C310.35 0.225616 308.858 -0.0351376 307.358 0.0037981Z" fill="#F2F2F2"/>
<path d="M171.815 142.082H72.7963C70.6884 142.067 68.6702 141.228 67.1743 139.742C65.7475 138.234 64.9663 136.229 64.997 134.153V27.6269C65.0048 25.5456 65.824 23.5495 67.2804 22.0627C68.7368 20.576 70.7157 19.7158 72.7963 19.665H171.815C173.924 19.6736 175.945 20.5152 177.436 22.0065C178.927 23.4977 179.769 25.5179 179.777 27.6269V134.153C179.765 136.252 178.924 138.26 177.437 139.742C175.936 141.216 173.919 142.044 171.815 142.05V142.082Z" fill="#464547"/>
<path d="M139.738 38.1236L138.763 39.066V38.1236H134.148C132.773 39.9358 130.978 41.3858 128.917 42.3484C126.856 43.3109 124.591 43.757 122.319 43.6481C120.047 43.757 117.783 43.3109 115.722 42.3484C113.661 41.3858 111.865 39.9358 110.49 38.1236H105.746V39.001L104.771 38.0586L87.7422 55.0547L97.0039 64.2839L105.681 55.6721V98.7635H138.828V55.6721L147.505 64.2839L156.766 55.0547L139.738 38.1236Z" fill="white"/>
<path d="M138.863 102.597H105.748C104.726 102.584 103.748 102.177 103.018 101.46C102.666 101.105 102.387 100.684 102.197 100.221C102.008 99.7582 101.911 99.2625 101.913 98.7624V64.9977L99.7686 67.0775C99.4138 67.4301 98.9929 67.7091 98.5301 67.8987C98.0672 68.0883 97.5715 68.1847 97.0714 68.1825C96.54 68.1856 96.0138 68.0774 95.5269 67.8647C95.0399 67.652 94.6029 67.3395 94.2441 66.9476L84.9174 57.7183C84.5697 57.3628 84.2939 56.9435 84.105 56.4834C83.9119 56.0201 83.8125 55.5231 83.8125 55.0211C83.8125 54.5191 83.9119 54.0221 84.105 53.5587C84.2939 53.0987 84.5697 52.6794 84.9174 52.3238L101.946 35.3927C102.361 34.9859 102.86 34.6753 103.408 34.4828C103.977 34.369 104.562 34.369 105.131 34.4828H110.493C111.127 34.4867 111.751 34.6427 112.313 34.9378C112.865 35.2531 113.342 35.6857 113.71 36.2052C114.806 37.4021 116.139 38.3579 117.624 39.0117C119.11 39.6656 120.715 40.0033 122.338 40.0033C123.961 40.0033 125.566 39.6656 127.051 39.0117C128.537 38.3579 129.87 37.4021 130.966 36.2052C131.325 35.6781 131.804 35.2437 132.363 34.9378C132.923 34.6391 133.548 34.4828 134.183 34.4828H139.74C140.24 34.4805 140.736 34.5769 141.199 34.7665C141.662 34.9561 142.083 35.2352 142.438 35.5877L159.434 52.5188C159.791 52.8731 160.078 53.2922 160.279 53.7537C160.472 54.2171 160.571 54.7141 160.571 55.2161C160.571 55.718 160.472 56.2151 160.279 56.6784C160.078 57.14 159.791 57.5591 159.434 57.9133L150.172 67.1425C149.817 67.4951 149.396 67.7741 148.933 67.9637C148.47 68.1533 147.975 68.2497 147.475 68.2475C146.974 68.2497 146.479 68.1533 146.016 67.9637C145.553 67.7741 145.132 67.4951 144.777 67.1425L142.73 64.9977V98.7624C142.734 99.2647 142.634 99.7624 142.438 100.225C142.256 100.696 141.966 101.119 141.593 101.46C141.239 101.825 140.814 102.114 140.345 102.31C139.876 102.505 139.371 102.603 138.863 102.597ZM109.615 94.9927H135.126V55.671C135.126 54.9178 135.353 54.1821 135.776 53.5587C136.2 52.9334 136.799 52.4473 137.498 52.1613C138.214 51.8901 138.993 51.8336 139.74 51.9988C140.481 52.1575 141.159 52.5305 141.69 53.0712L147.637 58.9857L151.407 55.2486L139.188 43.0296C138.576 43.1034 137.956 43.002 137.4 42.7371C137.014 42.5718 136.653 42.353 136.328 42.0872H136.003C132.317 45.6301 127.402 47.6089 122.289 47.6089C117.176 47.6089 112.262 45.6301 108.575 42.0872H108.25C107.933 42.3642 107.57 42.5841 107.178 42.7371C106.61 42.9627 106.001 43.0625 105.391 43.0296L93.1717 55.1836L97.0389 59.0507L103.018 52.9737C103.538 52.4243 104.222 52.0592 104.968 51.9338C105.714 51.7141 106.511 51.7368 107.243 51.9988C107.937 52.2943 108.533 52.7785 108.965 53.3962C109.379 54.0224 109.594 54.7584 109.583 55.5085V94.8302L109.615 94.9927Z" fill="white"/>
<path d="M292.897 31.559H215.618C214.082 31.4912 212.629 30.8404 211.556 29.7392C210.473 28.6388 209.865 27.1564 209.865 25.612C209.865 24.0677 210.473 22.5853 211.556 21.4849C212.629 20.3836 214.082 19.7329 215.618 19.665H292.897C294.433 19.7329 295.886 20.3836 296.959 21.4849C298.043 22.5853 298.65 24.0677 298.65 25.612C298.65 27.1564 298.043 28.6388 296.959 29.7392C295.886 30.8404 294.433 31.4912 292.897 31.559Z" fill="#83BCDC"/>
<path d="M292.896 59.2134H199.532C198.735 59.2281 197.942 59.0959 197.192 58.8234C196.438 58.5348 195.751 58.0921 195.177 57.5236C194.594 56.9734 194.13 56.3099 193.812 55.5737C193.515 54.8406 193.361 54.0575 193.357 53.2664C193.364 52.4651 193.518 51.6718 193.812 50.9266C194.423 49.4557 195.591 48.287 197.062 47.6769C197.807 47.3876 198.603 47.2548 199.402 47.2869H292.896C294.434 47.3534 295.888 48.0072 296.958 49.1136C298.028 50.22 298.633 51.6947 298.649 53.2339C298.639 54.7761 298.033 56.2547 296.959 57.3611C295.891 58.4743 294.437 59.137 292.896 59.2134Z" fill="#83BCDC"/>
<path d="M292.896 86.8365H199.532C198.735 86.8511 197.942 86.7189 197.192 86.4465C196.445 86.158 195.761 85.7276 195.177 85.1791C194.593 84.6171 194.129 83.9428 193.812 83.1968C193.515 82.4637 193.361 81.6805 193.357 80.8895C193.364 80.0882 193.518 79.2949 193.812 78.5497C194.423 77.0788 195.591 75.9101 197.062 75.2999C197.807 75.0106 198.603 74.8779 199.402 74.91H292.896C294.433 74.9778 295.885 75.6286 296.959 76.7298C298.042 77.8302 298.65 79.3126 298.65 80.857C298.65 82.4013 298.042 83.8837 296.959 84.9841C295.885 86.0854 294.433 86.7361 292.896 86.804V86.8365Z" fill="#83BCDC"/>
<path d="M292.898 114.46H199.533C198.735 114.492 197.938 114.359 197.193 114.07C195.722 113.46 194.554 112.291 193.944 110.82C193.337 109.319 193.337 107.641 193.944 106.14C194.554 104.67 195.722 103.501 197.193 102.891C197.938 102.601 198.735 102.469 199.533 102.501H292.898C294.434 102.569 295.887 103.219 296.96 104.321C298.043 105.421 298.651 106.903 298.651 108.448C298.651 109.992 298.043 111.475 296.96 112.575C295.887 113.676 294.434 114.327 292.898 114.395V114.46Z" fill="#E97522" fill-opacity="0.76"/>
<path d="M292.896 169.282H70.8101C70.0114 169.317 69.2144 169.185 68.4702 168.892C67.7097 168.631 67.02 168.198 66.4554 167.625C65.8443 167.103 65.3466 166.462 64.993 165.74C64.6717 165.008 64.5059 164.217 64.5059 163.417C64.5059 162.617 64.6717 161.826 64.993 161.093C65.3104 160.357 65.7749 159.693 66.3579 159.143C66.9225 158.571 67.6122 158.137 68.3728 157.876C69.1169 157.584 69.9139 157.451 70.7126 157.486H292.896C294.433 157.525 295.892 158.167 296.958 159.273C298.044 160.379 298.652 161.867 298.652 163.417C298.652 164.966 298.044 166.454 296.958 167.56C295.881 168.642 294.423 169.261 292.896 169.282Z" fill="#83BCDC"/>
<path d="M292.898 196.938H70.8114C70.0128 196.972 69.2157 196.84 68.4716 196.548C67.7168 196.275 67.0296 195.842 66.4568 195.28C65.8809 194.724 65.4175 194.062 65.0919 193.33C64.7698 192.592 64.6035 191.796 64.6035 190.991C64.6035 190.185 64.7698 189.389 65.0919 188.651C65.4175 187.919 65.8809 187.257 66.4568 186.701C67.0296 186.139 67.7168 185.706 68.4716 185.434C69.2157 185.141 70.0128 185.009 70.8114 185.044H292.898C294.434 185.111 295.886 185.762 296.96 186.863C298.043 187.964 298.651 189.446 298.651 190.991C298.651 192.535 298.043 194.017 296.96 195.118C295.886 196.219 294.434 196.87 292.898 196.938Z" fill="#83BCDC"/>
<path d="M292.896 224.593H70.8103C70.0131 224.607 69.2199 224.475 68.4705 224.203C67.7079 223.93 67.0184 223.485 66.4557 222.903C65.8411 222.371 65.3431 221.719 64.9933 220.985C64.6705 220.259 64.5044 219.473 64.5059 218.678C64.5047 217.873 64.6706 217.076 64.9933 216.338C65.319 215.607 65.7824 214.945 66.3582 214.388C66.9228 213.816 67.6125 213.382 68.373 213.121C69.1172 212.829 69.9142 212.696 70.7128 212.731H292.896C294.434 212.798 295.888 213.451 296.958 214.558C298.028 215.664 298.633 217.139 298.649 218.678C298.639 220.22 298.033 221.699 296.959 222.805C295.885 223.906 294.433 224.557 292.896 224.625V224.593Z" fill="#83BCDC"/>
<path d="M292.897 252.214H70.8105C70.0119 252.249 69.2148 252.116 68.4707 251.824C67.7159 251.551 67.0287 251.119 66.4559 250.557C65.8728 250.007 65.4083 249.343 65.091 248.607C64.7683 247.869 64.6023 247.073 64.6035 246.267C64.602 245.473 64.7681 244.686 65.091 243.96C65.4083 243.224 65.8728 242.56 66.4559 242.01C67.0268 241.438 67.7139 240.995 68.4707 240.71C69.2232 240.45 70.0142 240.318 70.8105 240.32H292.897C294.433 240.388 295.886 241.039 296.959 242.14C298.042 243.241 298.65 244.723 298.65 246.267C298.65 247.812 298.042 249.294 296.959 250.395C296.437 250.953 295.808 251.401 295.111 251.713C294.413 252.026 293.661 252.196 292.897 252.214Z" fill="#83BCDC"/>
<path d="M252.632 279.837H70.8103C70.0117 279.872 69.2146 279.739 68.4705 279.447C67.71 279.186 67.0203 278.753 66.4557 278.18C65.8375 277.639 65.3393 276.975 64.9933 276.23C64.6706 275.492 64.5047 274.696 64.5059 273.89C64.5044 273.096 64.6705 272.309 64.9933 271.583C65.3107 270.847 65.7751 270.183 66.3582 269.633C66.9292 269.061 67.6162 268.618 68.373 268.333C69.1255 268.073 69.9165 267.941 70.7128 267.943H252.697C253.504 267.941 254.306 268.073 255.07 268.333C255.818 268.634 256.502 269.075 257.085 269.633C257.668 270.176 258.123 270.842 258.417 271.583C258.74 272.309 258.906 273.096 258.904 273.89C258.906 274.696 258.74 275.492 258.417 276.23C258.123 276.971 257.668 277.637 257.085 278.18C256.509 278.739 255.823 279.171 255.07 279.447C254.314 279.739 253.507 279.872 252.697 279.837H252.632Z" fill="#4DA6DD"/>
<path d="M292.897 279.87H70.8104C70.0118 279.905 69.2147 279.772 68.4706 279.48C67.7158 279.207 67.0286 278.775 66.4558 278.213C65.8367 277.66 65.3388 276.985 64.9934 276.23C64.6677 275.505 64.5015 274.718 64.5059 273.923C64.5047 273.118 64.6707 272.321 64.9934 271.583C65.319 270.852 65.7824 270.19 66.3583 269.634C66.9311 269.071 67.6183 268.639 68.3731 268.366C69.1172 268.074 69.9143 267.941 70.7129 267.976H292.897C294.433 268.044 295.885 268.695 296.959 269.796C298.042 270.896 298.65 272.379 298.65 273.923C298.65 275.468 298.042 276.95 296.959 278.05C295.885 279.152 294.433 279.802 292.897 279.87Z" fill="#83BCDC"/>
<path d="M252.633 307.493H70.8114C70.0128 307.528 69.2157 307.395 68.4716 307.103C67.7168 306.83 67.0296 306.398 66.4568 305.836C65.8809 305.28 65.4175 304.618 65.0919 303.886C64.7698 303.148 64.6035 302.351 64.6035 301.546C64.6035 300.741 64.7698 299.944 65.0919 299.206C65.4175 298.475 65.8809 297.813 66.4568 297.257C67.0296 296.694 67.7168 296.262 68.4716 295.989C69.2157 295.697 70.0128 295.564 70.8114 295.599H252.796C253.605 295.564 254.413 295.697 255.168 295.989C255.915 296.278 256.6 296.708 257.183 297.257C257.76 297.806 258.214 298.47 258.516 299.206C258.838 299.944 259.004 300.741 259.004 301.546C259.004 302.351 258.838 303.148 258.516 303.886C258.214 304.623 257.76 305.287 257.183 305.836C256.6 306.384 255.915 306.815 255.168 307.103C254.413 307.395 253.605 307.528 252.796 307.493H252.633Z" fill="#83BCDC"/>
<path d="M292.898 142.082H199.533C198.752 142.082 197.979 141.929 197.257 141.63C196.536 141.331 195.88 140.893 195.328 140.341C194.776 139.788 194.337 139.133 194.039 138.411C193.74 137.69 193.586 136.916 193.586 136.135C193.586 135.354 193.74 134.581 194.039 133.86C194.337 133.138 194.776 132.483 195.328 131.93C195.88 131.378 196.536 130.94 197.257 130.641C197.979 130.342 198.752 130.188 199.533 130.188H292.898C293.678 130.188 294.452 130.342 295.173 130.641C295.895 130.94 296.55 131.378 297.103 131.93C297.655 132.483 298.093 133.138 298.392 133.86C298.691 134.581 298.845 135.354 298.845 136.135C298.845 136.916 298.691 137.69 298.392 138.411C298.093 139.133 297.655 139.788 297.103 140.341C296.55 140.893 295.895 141.331 295.173 141.63C294.452 141.929 293.678 142.082 292.898 142.082Z" fill="#E97522" fill-opacity="0.76"/>
<path d="M90.3098 128.335L89.7249 125.086L92.1622 122.713C92.3128 122.558 92.4242 122.368 92.4871 122.161C92.5349 121.954 92.5237 121.737 92.4547 121.536C92.3858 121.335 92.2619 121.158 92.0972 121.023C91.9456 120.88 91.7519 120.789 91.5447 120.763L88.295 120.276L86.6051 116.994C86.5113 116.796 86.3653 116.627 86.1827 116.506C85.9939 116.401 85.7814 116.346 85.5652 116.346C85.3491 116.346 85.1365 116.401 84.9478 116.506C84.7621 116.633 84.6067 116.8 84.4928 116.994L82.9979 120.081L79.7482 120.568C79.5295 120.587 79.3234 120.678 79.1633 120.828C78.9915 120.959 78.8662 121.141 78.8058 121.348C78.7574 121.551 78.7574 121.763 78.8058 121.966C78.8687 122.173 78.9801 122.363 79.1308 122.518L81.6006 124.891L81.0156 128.14C80.951 128.341 80.951 128.557 81.0156 128.758C81.0786 128.964 81.2181 129.138 81.4056 129.245C81.5688 129.386 81.7753 129.466 81.9905 129.473C82.1913 129.537 82.4072 129.537 82.608 129.473L85.6302 127.88L88.6525 129.473C88.8541 129.531 89.0683 129.531 89.2699 129.473C89.4949 129.466 89.7116 129.386 89.8874 129.245C90.0699 129.124 90.216 128.956 90.3098 128.758C90.3597 128.544 90.3597 128.322 90.3098 128.108V128.335Z" fill="#E97522"/>
<path d="M109.972 120.667L106.722 120.179L105.032 116.995C104.949 116.79 104.8 116.619 104.61 116.507C104.432 116.404 104.231 116.348 104.025 116.345C103.808 116.344 103.595 116.4 103.407 116.507C103.225 116.628 103.079 116.797 102.985 116.995L101.458 120.082L98.2079 120.569C98.0007 120.595 97.807 120.686 97.6554 120.829C97.4837 120.96 97.3584 121.142 97.298 121.349C97.2496 121.552 97.2496 121.764 97.298 121.967C97.3609 122.174 97.4723 122.363 97.623 122.519L100.06 124.892L99.4753 128.141C99.4269 128.344 99.4269 128.556 99.4753 128.759C99.5587 128.953 99.6935 129.122 99.8653 129.246C100.043 129.383 100.259 129.462 100.483 129.474C100.684 129.534 100.899 129.534 101.1 129.474L104.122 127.881L107.145 129.474C107.345 129.541 107.562 129.541 107.762 129.474C107.976 129.462 108.181 129.382 108.347 129.246C108.519 129.122 108.654 128.953 108.737 128.759C108.785 128.556 108.785 128.344 108.737 128.141L108.152 124.892L110.589 122.519C110.751 122.373 110.865 122.18 110.914 121.967C110.996 121.769 110.996 121.547 110.914 121.349C110.867 121.145 110.753 120.962 110.589 120.829C110.422 120.69 110.22 120.6 110.004 120.569L109.972 120.667Z" fill="#E97522"/>
<path d="M128.395 120.666L125.146 120.179L123.488 116.994C123.392 116.806 123.246 116.649 123.066 116.539C122.885 116.412 122.669 116.344 122.448 116.344C122.227 116.344 122.012 116.412 121.831 116.539C121.651 116.649 121.504 116.806 121.408 116.994L119.881 120.082L116.631 120.569C116.413 120.587 116.207 120.679 116.046 120.829C115.877 120.959 115.752 121.138 115.688 121.341C115.625 121.545 115.625 121.763 115.689 121.966C115.74 122.172 115.84 122.361 115.981 122.519L118.419 124.891L117.866 128.141C117.828 128.349 117.851 128.564 117.931 128.76C118.012 128.956 118.147 129.125 118.321 129.246C118.484 129.386 118.691 129.466 118.906 129.473C119.107 129.538 119.323 129.538 119.524 129.473L122.546 127.881L125.568 129.473C125.769 129.534 125.984 129.534 126.186 129.473C126.401 129.466 126.607 129.386 126.77 129.246C126.944 129.125 127.08 128.956 127.16 128.76C127.241 128.564 127.264 128.349 127.225 128.141L126.673 124.891L129.11 122.519C129.261 122.363 129.372 122.174 129.435 121.966C129.484 121.763 129.484 121.552 129.435 121.349C129.375 121.142 129.25 120.96 129.078 120.829C128.918 120.679 128.712 120.587 128.493 120.569L128.395 120.666Z" fill="#E97522"/>
<path d="M146.859 120.667L143.609 120.179L141.952 116.995C141.877 116.793 141.725 116.629 141.529 116.54C141.36 116.413 141.155 116.345 140.944 116.345C140.723 116.345 140.507 116.413 140.327 116.54C140.146 116.649 140 116.807 139.904 116.995L138.344 120.082L135.095 120.569C134.887 120.595 134.694 120.686 134.542 120.829C134.37 120.96 134.245 121.142 134.185 121.349C134.136 121.552 134.136 121.764 134.185 121.967C134.248 122.174 134.359 122.363 134.51 122.519L136.947 124.892L136.362 128.141C136.314 128.344 136.314 128.556 136.362 128.759C136.448 128.962 136.596 129.133 136.784 129.246C136.955 129.374 137.157 129.452 137.369 129.474C137.573 129.52 137.784 129.52 137.987 129.474L141.009 127.881L144.031 129.474C144.21 129.59 144.419 129.651 144.633 129.651C144.846 129.651 145.055 129.59 145.234 129.474C145.414 129.358 145.551 129.187 145.624 128.986C145.672 128.783 145.672 128.572 145.624 128.369L145.071 125.119L147.509 122.747C147.65 122.589 147.75 122.399 147.801 122.194C147.865 121.991 147.865 121.773 147.801 121.569C147.738 121.366 147.613 121.187 147.444 121.057C147.28 120.913 147.076 120.822 146.859 120.797V120.667Z" fill="#E97522"/>
<path d="M165.281 120.667L162.031 120.179L160.406 116.995C160.321 116.8 160.172 116.639 159.984 116.54C159.803 116.413 159.587 116.345 159.366 116.345C159.156 116.345 158.95 116.413 158.782 116.54C158.586 116.629 158.434 116.793 158.359 116.995L156.799 120.082L153.549 120.569C153.333 120.594 153.129 120.685 152.965 120.829C152.802 120.969 152.679 121.148 152.607 121.349C152.542 121.55 152.542 121.766 152.607 121.967C152.658 122.172 152.759 122.362 152.9 122.519L155.369 124.892L154.784 128.141C154.72 128.342 154.72 128.558 154.784 128.759C154.868 128.953 155.003 129.122 155.174 129.246C155.348 129.369 155.549 129.447 155.759 129.474C155.962 129.526 156.174 129.526 156.377 129.474L159.399 127.881L162.421 129.474C162.623 129.534 162.837 129.534 163.039 129.474C163.254 129.467 163.46 129.387 163.624 129.246C163.811 129.139 163.951 128.965 164.014 128.759C164.076 128.558 164.076 128.342 164.014 128.141L163.429 124.892L165.866 122.519C166.017 122.363 166.128 122.174 166.191 121.967C166.239 121.764 166.239 121.552 166.191 121.349C166.131 121.142 166.005 120.96 165.833 120.829C165.673 120.679 165.467 120.588 165.248 120.569L165.281 120.667Z" fill="#E97522"/>
<path d="M415.219 231.286C414.869 231.286 414.523 231.217 414.199 231.084C413.876 230.95 413.582 230.754 413.335 230.506C412.206 229.378 411.31 228.038 410.699 226.563C410.088 225.088 409.773 223.507 409.773 221.911C409.773 220.314 410.088 218.733 410.699 217.259C411.31 215.784 412.206 214.444 413.335 213.315L448.172 178.478C448.812 177.838 449.321 177.078 449.667 176.242C450.014 175.406 450.193 174.509 450.193 173.603C450.193 172.698 450.014 171.801 449.667 170.965C449.321 170.129 448.812 169.369 448.172 168.729L441.315 161.872C441.069 161.616 440.877 161.314 440.748 160.984C440.619 160.653 440.557 160.301 440.565 159.946C440.572 159.591 440.649 159.242 440.792 158.917C440.935 158.592 441.14 158.299 441.396 158.054C441.652 157.808 441.954 157.616 442.284 157.487C442.615 157.358 442.967 157.296 443.322 157.303C443.677 157.311 444.026 157.388 444.351 157.531C444.676 157.674 444.969 157.879 445.214 158.135L452.071 164.992C454.353 167.277 455.635 170.374 455.635 173.603C455.635 176.833 454.353 179.93 452.071 182.215L417.072 217.052C416.431 217.692 415.923 218.452 415.576 219.288C415.229 220.125 415.051 221.021 415.051 221.927C415.051 222.832 415.229 223.729 415.576 224.565C415.923 225.402 416.431 226.162 417.072 226.801C417.317 227.043 417.512 227.332 417.646 227.65C417.779 227.968 417.847 228.309 417.847 228.654C417.847 228.999 417.779 229.34 417.646 229.658C417.512 229.976 417.317 230.264 417.072 230.506C416.582 231.001 415.916 231.281 415.219 231.286Z" fill="#30302F"/>
<path d="M452.363 140.977L440.502 129.083C439.364 127.909 437.826 127.207 436.194 127.116C434.561 127.026 432.955 127.554 431.695 128.595L417.299 140.002C415.417 141.509 413.617 143.115 411.904 144.811L388.474 168.242L386.719 171.037L410.442 194.727L413.237 193.005L436.667 169.574C438.364 167.862 439.969 166.061 441.477 164.18L452.883 149.783C453.92 148.519 454.443 146.911 454.346 145.278C454.25 143.646 453.542 142.11 452.363 140.977Z" fill="#E97522"/>
<path d="M452.363 140.977L446.709 135.322C447.183 136.455 447.346 137.695 447.18 138.912C447.014 140.129 446.526 141.279 445.766 142.244L433.97 157.128C432.406 159.071 430.735 160.927 428.965 162.685L404.17 187.48L410.409 194.727L413.204 193.005L436.635 169.574C438.331 167.862 439.937 166.061 441.444 164.18L452.851 149.784C453.888 148.519 454.41 146.911 454.314 145.278C454.217 143.646 453.509 142.11 452.331 140.977H452.363Z" fill="white" fill-opacity="0.32"/>
<path d="M322.211 244.384L307.392 259.17C304.649 261.951 301.318 264.083 297.643 265.41L288.934 268.464C288.684 268.557 288.458 268.704 288.273 268.895C288.087 269.086 287.947 269.317 287.862 269.569L276.228 303.854C276.173 304.039 276.169 304.235 276.217 304.422C276.264 304.609 276.361 304.78 276.498 304.916C276.634 305.052 276.805 305.15 276.992 305.197C277.179 305.245 277.375 305.241 277.56 305.186L311.975 293.78C312.224 293.697 312.452 293.557 312.638 293.37C312.824 293.184 312.964 292.957 313.047 292.707L316.297 283.998C317.623 280.324 319.755 276.993 322.536 274.249L337.322 259.43L322.211 244.384Z" fill="#6E6E6E"/>
<path d="M330.823 252.995L316.037 267.814C313.256 270.558 311.124 273.889 309.797 277.563L306.548 286.272C306.464 286.527 306.32 286.758 306.127 286.945C305.935 287.131 305.7 287.269 305.443 287.345L278.6 296.281L276.228 303.853C276.173 304.038 276.169 304.235 276.217 304.422C276.264 304.609 276.361 304.779 276.498 304.916C276.634 305.052 276.805 305.149 276.992 305.197C277.179 305.244 277.375 305.24 277.56 305.186L311.975 293.779C312.224 293.696 312.452 293.556 312.638 293.37C312.824 293.184 312.964 292.957 313.047 292.707L316.297 283.997C317.623 280.323 319.755 276.992 322.536 274.248L337.322 259.43L330.823 252.995Z" fill="#30302F"/>
<path d="M299.723 286.759C302.487 286.759 304.728 284.519 304.728 281.755C304.728 278.991 302.487 276.75 299.723 276.75C296.959 276.75 294.719 278.991 294.719 281.755C294.719 284.519 296.959 286.759 299.723 286.759Z" fill="white"/>
<path d="M360.068 246.138L383.271 222.968C384.733 221.473 386.13 219.945 387.463 218.321L405.856 195.833L385.643 175.489L363.155 193.883C361.53 195.215 359.905 196.612 358.508 198.075L335.337 221.278C333.687 222.907 332.135 224.632 330.69 226.445L327.863 229.987V233.432L324.613 234.147L315.969 244.936C315.647 245.299 315.469 245.767 315.469 246.252C315.469 246.737 315.647 247.205 315.969 247.568L333.712 265.279C334.075 265.601 334.543 265.779 335.028 265.779C335.513 265.779 335.982 265.601 336.344 265.279L347.134 256.635L348.239 253.97L351.293 253.32L354.835 250.493C356.648 249.048 358.374 247.496 360.002 245.846L360.068 246.138Z" fill="#E97522"/>
<path d="M398.579 188.488L380.218 211.041C378.916 212.674 377.516 214.226 376.026 215.688L352.855 238.859C351.216 240.51 349.48 242.062 347.656 243.506L327.768 259.397L333.812 265.409C334.175 265.731 334.643 265.909 335.128 265.909C335.613 265.909 336.082 265.731 336.444 265.409L347.233 256.765L348.338 254.1L351.393 253.45L354.935 250.623C356.748 249.178 358.474 247.626 360.102 245.976L383.305 222.805C384.768 221.31 386.165 219.783 387.498 218.158L405.891 195.67L398.579 188.488Z" fill="white" fill-opacity="0.32"/>
<path d="M418.859 232.912C422.987 232.912 426.334 229.565 426.334 225.437C426.334 221.309 422.987 217.963 418.859 217.963C414.731 217.963 411.385 221.309 411.385 225.437C411.385 229.565 414.731 232.912 418.859 232.912Z" fill="#6E6E6E"/>
<path d="M424.149 220.173C423.137 219.168 421.86 218.473 420.468 218.168C419.075 217.863 417.624 217.961 416.285 218.45C417.294 218.831 418.213 219.417 418.982 220.173C420.374 221.578 421.154 223.476 421.154 225.453C421.154 227.431 420.374 229.329 418.982 230.734C418.204 231.478 417.288 232.063 416.285 232.456C417.881 233.036 419.626 233.056 421.235 232.512C422.843 231.967 424.218 230.892 425.133 229.462C426.049 228.032 426.45 226.333 426.271 224.645C426.092 222.956 425.344 221.379 424.149 220.173Z" fill="#585858"/>
<path d="M388.472 168.243L378.431 178.285C378.184 178.53 377.988 178.821 377.855 179.141C377.721 179.462 377.652 179.806 377.652 180.153C377.652 180.501 377.721 180.845 377.855 181.166C377.988 181.486 378.184 181.777 378.431 182.022L399.424 203.048C399.671 203.295 399.965 203.492 400.289 203.626C400.612 203.76 400.959 203.829 401.309 203.829C401.659 203.829 402.005 203.76 402.329 203.626C402.652 203.492 402.946 203.295 403.194 203.048L413.235 193.006L388.472 168.243Z" fill="#6E6E6E"/>
<path d="M405.956 185.726L394.029 197.652L399.424 203.047C399.671 203.294 399.965 203.491 400.289 203.625C400.612 203.759 400.959 203.828 401.309 203.828C401.659 203.828 402.005 203.759 402.329 203.625C402.652 203.491 402.946 203.294 403.194 203.047L413.235 193.005L405.956 185.726Z" fill="#30302F"/>
<path d="M324.555 234.276L347.303 257.025L351.462 253.775L327.967 230.279L324.555 234.276Z" fill="#6E6E6E"/>
<path d="M339.953 249.648L347.2 256.927L351.36 253.678L344.08 246.431L339.953 249.648Z" fill="#585858"/>
</svg>
