<svg width="180" height="180" viewBox="0 0 180 180" fill="none" xmlns="http://www.w3.org/2000/svg">
<path d="M112.47 109.111L110.176 102.071C110.117 101.866 110.059 101.661 110.059 101.426L109.088 64.1719V67.9559C109.088 69.3053 108.853 70.684 108.382 71.9747L103.559 85.6736L104.941 87.727C108.382 92.8017 110.206 98.7565 110.206 104.858C110.206 106.325 110.059 107.791 109.764 109.199L108.382 115.975H110.559C111.676 115.975 112.588 115.066 112.588 113.951V110.138C112.647 109.786 112.588 109.434 112.47 109.111Z" fill="#FFCBC9"/>
<path d="M117.116 65.4018C116.499 60.7083 112.852 61.1483 112.234 56.4843C111.616 51.7908 115.264 51.3508 114.646 46.6574C114.028 41.964 110.381 42.404 109.764 37.7399V34.8945H75.6459V37.7399C75.0283 42.4333 71.3812 41.9933 70.7636 46.6574C70.1459 51.3508 73.793 51.7908 73.1753 56.4843C72.5577 61.1777 68.9106 60.7377 68.293 65.4018V66.5164C68.293 68.7165 70.1459 70.4765 72.4106 70.4765H112.411C114.999 70.4765 117.087 68.4525 117.087 65.9884L117.116 65.4018Z" fill="#474748"/>
<path d="M108.558 50.3241C110.028 47.0681 101.381 37.3292 99.1459 34.8945H97.2341L87.94 38.7079L76.293 41.7587C76.293 41.7587 80.7341 52.1428 80.2341 54.9296C79.7341 57.7163 75.0871 62.4097 78.6459 67.9831C79.2341 68.9218 80.44 69.7432 81.9988 70.4765H110.616C113.616 65.0204 112.205 62.3804 110.234 59.975C107.764 56.9243 106.852 54.0789 108.558 50.3241Z" fill="#30302F"/>
<path d="M91.8242 114.539H93.5007H104.06L101.56 132.726L99.6772 142.905L99.883 144.9L98.9419 150.385C98.2948 150.092 97.5889 149.916 96.8242 149.916H94.0301C93.4713 149.916 92.9419 150.004 92.4419 150.18L91.8536 144.87L92.2654 142.67L91.8536 132.609L91.8242 114.539Z" fill="#FFCBC9"/>
<path d="M90.0597 151.088L90.2068 150.795L91.795 144.869L92.3833 150.208L92.8244 152.379H98.4715L98.8833 150.355L99.8244 144.869L100.854 150.795L100.971 151.088C101.119 151.44 101.207 151.792 101.207 152.173C101.266 153.64 100.089 154.872 98.6186 154.872H92.3539C90.9127 154.872 89.7656 153.728 89.7656 152.291C89.7656 151.88 89.8833 151.469 90.0597 151.088Z" fill="#F9A7A7"/>
<path d="M89.7657 152.232C89.7657 151.821 89.8834 151.44 90.0599 151.088L90.2069 150.795L91.7951 144.869L92.3834 150.179C92.8834 150.003 93.4128 149.915 93.9716 149.915H96.7657C97.5304 149.915 98.2363 150.091 98.8834 150.384L99.8246 144.898L100.854 150.824L100.972 151.117C101.119 151.469 101.207 151.821 101.207 152.203C101.207 152.349 101.207 152.467 101.177 152.613C101.177 152.643 101.177 152.643 101.177 152.672C101.177 152.76 101.148 152.848 101.119 152.965C101.089 153.024 101.089 153.112 101.06 153.171C101.03 153.259 101.001 153.347 100.942 153.435C100.913 153.493 100.883 153.552 100.854 153.64C100.825 153.728 100.766 153.787 100.707 153.845C100.648 153.904 100.619 153.963 100.56 154.021C100.501 154.08 100.442 154.139 100.383 154.197C100.325 154.256 100.266 154.315 100.177 154.373C100.119 154.432 100.06 154.461 100.001 154.52C99.9128 154.579 99.854 154.608 99.7657 154.667C99.7069 154.696 99.6481 154.725 99.5893 154.755C99.501 154.784 99.3834 154.813 99.2657 154.843C99.2069 154.872 99.1481 154.872 99.0893 154.901C98.9128 154.931 98.7657 154.96 98.5893 154.96H92.3246C91.7952 154.96 91.2951 154.784 90.8834 154.52C90.6187 154.344 90.3834 154.109 90.1775 153.816C89.8834 153.405 89.7363 152.907 89.7363 152.379C89.7657 152.261 89.7657 152.261 89.7657 152.232Z" fill="#404040"/>
<path d="M94.9404 121.578H93.2639H82.7051L85.2051 139.765L87.0874 149.944L86.8815 151.939L87.8227 157.424C88.4698 157.131 89.1757 156.955 89.9404 156.955H92.7345C93.2933 156.955 93.8227 157.043 94.3227 157.219L94.9109 151.909L94.4992 149.709L94.9109 139.648L94.9404 121.578Z" fill="#FFCBC9"/>
<path d="M103.883 59.7429H98.8827V56.1055C97.1474 56.8388 95.265 57.2495 93.265 57.2495C91.265 57.2495 89.3827 56.8388 87.6474 56.1055V59.7429H82.6474C79.765 59.7429 77.4121 61.7376 77.4121 64.2016V67.9564C77.4121 69.3057 77.6474 70.6844 78.118 71.9751L82.9415 85.674H93.265H103.589L108.412 71.9751C108.883 70.6844 109.118 69.3057 109.118 67.9564V64.1723C109.118 61.7082 106.765 59.7429 103.883 59.7429Z" fill="#FFCBC9"/>
<path d="M107.647 37.7421C107.617 37.7421 107.588 37.7421 107.559 37.7421V36.4221C107.559 28.6193 101.176 22.3125 93.2646 22.3125C85.3528 22.3125 78.9705 28.6486 78.9705 36.4221V37.7421C78.9411 37.7421 78.9116 37.7421 78.8822 37.7421C76.4705 37.7421 74.5293 39.6781 74.5293 42.0542C74.5293 44.4302 76.4705 46.3663 78.8822 46.3663C79.0293 46.3663 79.2058 46.3663 79.3528 46.3369C80.8234 52.585 86.4999 57.2491 93.2646 57.2491C100.029 57.2491 105.706 52.585 107.176 46.3369C107.323 46.3663 107.5 46.3663 107.647 46.3663C110.059 46.3663 112 44.4302 112 42.0542C112 39.6488 110.059 37.7421 107.647 37.7421Z" fill="#FFCBC9"/>
<path d="M93.2655 57.2198C100.03 57.2198 105.707 52.5558 107.177 46.3076C107.324 46.337 107.501 46.337 107.648 46.337C110.06 46.337 112.001 44.4009 112.001 42.0249C112.001 39.6489 110.06 37.7128 107.648 37.7128C107.618 37.7128 107.589 37.7128 107.56 37.7128V36.3928C107.56 28.59 101.177 22.2832 93.2655 22.2832C91.1479 22.2832 89.1184 22.7525 87.2949 23.5739L88.6773 36.9501C96.1773 37.2728 97.942 34.1928 97.942 34.1928C97.942 34.1928 104.942 35.4541 105.236 40.9395C105.53 46.425 101.913 57.2198 93.2655 57.2198Z" fill="#E6B8B8"/>
<g opacity="0.6">
<path opacity="0.6" d="M92.381 150.178C92.881 150.002 93.4104 149.914 93.9692 149.914H92.3516L92.381 150.178Z" fill="#E6B8B8"/>
<path opacity="0.6" d="M104.029 114.537H102.176L99.6759 132.724L97.7935 142.903L97.9994 144.898L97.1465 149.943C97.7935 149.972 98.3818 150.148 98.9406 150.412L99.8818 144.927L99.6759 142.932L101.558 132.753L104.029 114.537Z" fill="#E6B8B8"/>
</g>
<path d="M104.971 87.728L103.589 85.6747L108.412 71.9758C108.883 70.6851 109.118 69.3064 109.118 67.957V64.173C109.118 63.8796 109.089 63.6156 109.03 63.3223H77.5594C77.5006 63.5863 77.4712 63.8796 77.4712 64.173V67.957C77.4712 69.3064 77.7065 70.6851 78.177 71.9758L83.0006 85.6747L81.6182 87.728C78.177 92.8028 76.3535 98.7576 76.3535 104.859C76.3535 106.326 76.5006 107.792 76.7947 109.2L79.2947 121.55H93.3535H107.412L109.912 109.2C110.206 107.763 110.353 106.296 110.353 104.859C110.265 98.7576 108.412 92.7735 104.971 87.728Z" fill="#83BCDC"/>
<path d="M86.8233 37.1257H76.2351C75.588 37.1257 75.0586 36.5977 75.0586 35.9523V29.2935C75.0586 23.0454 80.1174 18 86.3821 18H91.9703C94.7939 18 97.088 20.288 97.088 23.1041V26.8588C97.1174 32.5203 92.4998 37.1257 86.8233 37.1257Z" fill="#474748"/>
<path d="M109.149 35.6006H107.06C101.56 35.6006 97.1191 31.1712 97.1191 25.6858V22.4004C97.1191 20.699 98.5015 19.3203 100.207 19.3203H100.825C106.09 19.3203 110.325 23.5737 110.325 28.7952V34.4273C110.325 35.0726 109.796 35.6006 109.149 35.6006Z" fill="#474748"/>
<path d="M96.6765 158.127L96.5294 157.834L94.9412 151.908L94.353 157.247L93.9118 159.418H88.2647L87.853 157.394L86.9118 151.908L85.8824 157.834L85.7648 158.127C85.6177 158.479 85.5295 158.831 85.5295 159.212C85.4706 160.679 86.6471 161.911 88.1177 161.911H94.3824C95.8236 161.911 96.9706 160.767 96.9706 159.33C96.9706 158.919 96.8824 158.508 96.6765 158.127Z" fill="#F9A7A7"/>
<path d="M96.9706 159.271C96.9706 158.86 96.8529 158.479 96.6765 158.127L96.5294 157.834L94.9412 151.908L94.3529 157.218C93.8529 157.042 93.3235 156.954 92.7647 156.954H89.9412C89.1765 156.954 88.4706 157.13 87.8235 157.423L86.8824 151.938L85.8529 157.863L85.7353 158.156C85.5882 158.508 85.5 158.86 85.5 159.242C85.5 159.388 85.5 159.506 85.5294 159.652C85.5294 159.682 85.5294 159.682 85.5294 159.711C85.5294 159.799 85.5588 159.887 85.5882 160.004C85.6176 160.063 85.6176 160.151 85.6471 160.21C85.6765 160.298 85.7059 160.386 85.7647 160.474C85.7941 160.532 85.8235 160.591 85.8529 160.679C85.8824 160.767 85.9412 160.826 86 160.884C86.0588 160.943 86.0882 161.002 86.1471 161.06C86.2059 161.119 86.2647 161.178 86.3235 161.236C86.3824 161.295 86.4412 161.354 86.5294 161.412C86.5882 161.471 86.6471 161.5 86.7059 161.559C86.7941 161.618 86.8529 161.647 86.9412 161.706C87 161.735 87.0588 161.764 87.1176 161.794C87.2059 161.823 87.3235 161.852 87.4412 161.882C87.5 161.911 87.5588 161.911 87.6176 161.94C87.7941 161.97 87.9412 161.999 88.1176 161.999H94.3823C94.9118 161.999 95.4118 161.823 95.8235 161.559C96.0882 161.383 96.3235 161.148 96.5294 160.855C96.8235 160.444 96.9706 159.946 96.9706 159.418C96.9706 159.3 96.9706 159.3 96.9706 159.271Z" fill="#404040"/>
<path d="M76.8531 49.4158C76.3531 49.4158 75.9707 49.0344 75.9707 48.5357V44.3117C75.9707 43.813 76.3531 43.4316 76.8531 43.4316C77.3531 43.4316 77.7354 43.813 77.7354 44.3117V48.5357C77.7354 49.0051 77.3531 49.4158 76.8531 49.4158Z" fill="#E0EBFC"/>
<path d="M108.558 49.4158C108.058 49.4158 107.676 49.0344 107.676 48.5357V44.3117C107.676 43.813 108.058 43.4316 108.558 43.4316C109.058 43.4316 109.44 43.813 109.44 44.3117V48.5357C109.44 49.0051 109.029 49.4158 108.558 49.4158Z" fill="#E0EBFC"/>
<path d="M76.8531 49.4158C76.3531 49.4158 75.9707 49.0344 75.9707 48.5357V44.3117C75.9707 43.813 76.3531 43.4316 76.8531 43.4316C77.3531 43.4316 77.7354 43.813 77.7354 44.3117V48.5357C77.7354 49.0051 77.3531 49.4158 76.8531 49.4158Z" fill="white"/>
<path d="M108.558 49.4158C108.058 49.4158 107.676 49.0344 107.676 48.5357V44.3117C107.676 43.813 108.058 43.4316 108.558 43.4316C109.058 43.4316 109.44 43.813 109.44 44.3117V48.5357C109.44 49.0051 109.029 49.4158 108.558 49.4158Z" fill="white"/>
<path d="M81.5583 87.7269L81.5877 87.6682L76.0289 79.6014C75.7347 79.1908 75.7936 78.6041 76.2053 78.2521L79.3818 75.4947L78.1465 71.9746C77.6759 70.6839 77.4406 69.3052 77.4406 67.9559V64.1718C77.4406 63.8785 77.47 63.6145 77.5289 63.3211H78.2347L77.823 62.6758L66.7642 74.908C65.3524 76.4627 65.3524 78.8387 66.7936 80.3641L75.7641 90.1616C76.0289 90.455 76.1171 90.8656 75.9406 91.247L74.5583 94.5617C74.0583 95.7937 73.9994 97.1431 74.4112 98.4044L76.1759 103.919H76.2936C76.47 98.1698 78.2936 92.5377 81.5583 87.7269Z" fill="#FFCBC9"/>
<path d="M138.266 40.9395C138.295 41.0568 138.295 41.2035 138.295 41.3208V52.673C138.295 52.8197 138.266 52.937 138.266 53.0837H146.119V40.9395H138.266Z" fill="#30302F"/>
<path d="M148.764 62.8519H159.352C160.823 62.8519 162 61.6785 162 60.2118V34.2807C162 32.814 160.823 31.6406 159.352 31.6406H148.764C147.294 31.6406 146.117 32.814 146.117 34.2807V60.1825C146.117 61.6492 147.294 62.8519 148.764 62.8519Z" fill="#6B6B6B"/>
<path d="M136.205 39.209H126.352C125.176 39.209 124.234 40.1477 124.234 41.321V52.6732C124.234 53.8466 125.176 54.7853 126.352 54.7853H136.205C137.381 54.7853 138.323 53.8466 138.323 52.6732V41.321C138.323 40.1477 137.352 39.209 136.205 39.209Z" fill="#6B6B6B"/>
<path d="M149.941 31.6399H158.147V28.6478C158.147 28.0611 157.677 27.5918 157.088 27.5918H151C150.412 27.5918 149.941 28.0611 149.941 28.6478V31.6399Z" fill="#ED6E24"/>
<path d="M146.118 53.0837H142V40.9395H146.118V53.0837Z" fill="#30302F"/>
<path d="M45.7357 88.2246C45.7063 88.3419 45.7063 88.4886 45.7063 88.6353V99.9875C45.7063 100.134 45.7357 100.251 45.7357 100.398H37.8828V88.2539L45.7357 88.2246Z" fill="#30302F"/>
<path d="M35.2353 110.137H24.6471C23.1765 110.137 22 108.964 22 107.497V81.5951C22 80.1284 23.1765 78.9551 24.6471 78.9551H35.2353C36.7059 78.9551 37.8823 80.1284 37.8823 81.5951V107.497C37.8823 108.934 36.7059 110.137 35.2353 110.137Z" fill="#6B6B6B"/>
<path d="M47.8234 86.4941H57.6763C58.8528 86.4941 59.794 87.4328 59.794 88.6062V99.9584C59.794 101.132 58.8528 102.07 57.6763 102.07H47.8234C46.6469 102.07 45.7057 101.132 45.7057 99.9584V88.6062C45.6763 87.4328 46.6469 86.4941 47.8234 86.4941Z" fill="#6B6B6B"/>
<path d="M34.0594 78.927H25.8535V75.9349C25.8535 75.3482 26.3241 74.8789 26.9123 74.8789H33.0006C33.5888 74.8789 34.0594 75.3482 34.0594 75.9349V78.927Z" fill="#ED6E24"/>
<path d="M37.8828 88.2246H42.0005V100.369H37.8828V88.2246Z" fill="#30302F"/>
<path d="M40.3813 79.0461V79.0754C40.2637 79.5448 40.5284 80.0141 40.999 80.1315L43.6166 80.8355C44.0872 80.9528 44.5578 80.6888 44.6755 80.2195V80.1901C44.7931 79.7208 44.5284 79.2514 44.0578 79.1341L41.4402 78.4301C40.9696 78.3128 40.499 78.5768 40.3813 79.0461Z" fill="#83BCDC" fill-opacity="0.42"/>
<path d="M39.9103 74.791C39.6456 74.351 39.7927 73.823 40.2044 73.559L42.5574 72.2097C42.9692 71.975 43.4986 72.1217 43.7633 72.5323L43.7927 72.5617C44.028 72.9723 43.8809 73.5003 43.4691 73.7643L41.1162 75.1137C40.675 75.3484 40.1456 75.231 39.9103 74.791Z" fill="#83BCDC" fill-opacity="0.42"/>
<path d="M36.4698 72.3281H36.4404C35.9698 72.2107 35.7051 71.7121 35.8228 71.2721L36.5286 68.6613C36.6463 68.192 37.1463 67.928 37.5875 68.0453H37.6169C38.0875 68.1627 38.3522 68.6613 38.2345 69.1013L37.5286 71.7121C37.411 72.1521 36.9404 72.4454 36.4698 72.3281Z" fill="#83BCDC" fill-opacity="0.42"/>
<path d="M143.617 31.7595V31.7888C143.735 32.2581 143.47 32.7275 142.999 32.8448L140.382 33.5488C139.911 33.6662 139.44 33.4022 139.323 32.9328V32.9035C139.205 32.4342 139.47 31.9648 139.94 31.8475L142.558 31.1435C143.029 30.9968 143.499 31.2901 143.617 31.7595Z" fill="#83BCDC" fill-opacity="0.42"/>
<path d="M144.086 27.5039C144.351 27.0639 144.204 26.5359 143.792 26.2719L141.439 24.9225C141.028 24.6879 140.498 24.8345 140.234 25.2452L140.204 25.2745C139.969 25.6852 140.116 26.2132 140.528 26.4772L142.881 27.8266C143.322 28.0613 143.851 27.9146 144.086 27.5039Z" fill="#83BCDC" fill-opacity="0.42"/>
<path d="M147.529 25.0117H147.558C148.029 24.8943 148.294 24.425 148.176 23.9557L147.47 21.3449C147.352 20.8756 146.882 20.6116 146.411 20.7289H146.382C145.911 20.8463 145.647 21.3156 145.764 21.7849L146.47 24.3957C146.588 24.865 147.058 25.129 147.529 25.0117Z" fill="#83BCDC" fill-opacity="0.42"/>
<path d="M107.325 121.578L109.825 109.229C110.119 107.791 110.266 106.325 110.266 104.887C110.266 98.7858 108.442 92.8017 105.001 87.7563L103.619 85.7029L108.442 72.004C108.913 70.7133 109.148 69.3346 109.148 67.9852V66.3425L100.619 64.2012C97.1481 77.1374 95.5304 85.7029 95.5304 85.7029C95.5304 85.7029 101.707 99.0205 101.266 105.063C100.825 111.077 100.001 121.608 82.7657 121.608H82.7363H93.3246H107.325V121.578Z" fill="#306694"/>
<path d="M96.4694 67.7511L109.116 67.2817V64.1723C109.116 61.7083 106.764 59.7136 103.881 59.7136H98.8812V56.0762C97.3224 56.7509 95.5871 57.1322 93.793 57.1909C93.793 61.1216 97.9694 61.8549 99.3812 61.8549C100.822 61.8549 100.587 63.703 100.587 63.703L96.4694 67.7511Z" fill="#E6B8B8"/>
<path d="M75.2934 63.3223H109.999C110.558 63.3223 111.058 63.7623 111.235 64.4076L112.882 71.4184C113.117 72.4744 112.352 73.4425 111.44 73.2664L75.1758 66.1383C74.8817 66.0797 74.6758 65.7863 74.6758 65.4636V64.0263C74.6758 63.6449 74.9405 63.3223 75.2934 63.3223Z" fill="white"/>
<g opacity="0.6">
<path opacity="0.6" d="M94.9427 121.578H93.2662H92.678V139.677L92.2662 149.739L92.678 151.939L92.1191 156.955H92.7368C93.2956 156.955 93.825 157.043 94.325 157.219L94.9133 151.909L94.5015 149.709L94.9133 139.648V121.578H94.9427Z" fill="#E6B8B8"/>
<path opacity="0.6" d="M87.8539 157.424C88.5009 157.131 89.2068 156.955 89.9715 156.955H87.7656L87.8539 157.424Z" fill="#E6B8B8"/>
</g>
<path d="M112.882 71.4184L111.235 64.4076C111.088 63.7623 110.588 63.3223 110 63.3223H103.617C104.176 63.3223 104.676 63.7623 104.852 64.4076L106.5 71.4184C106.558 71.7118 106.558 72.0344 106.47 72.2984L111.441 73.2664C112.352 73.4718 113.117 72.4744 112.882 71.4184Z" fill="#C3D3ED"/>
<path d="M81.5884 87.6691L76.0295 79.6023C75.7354 79.1623 75.7942 78.6049 76.206 78.2529L79.3825 75.4662L78.4413 72.8262C76.3531 73.9995 72.5295 76.2582 72.6472 77.7836C72.7942 79.8663 79.4707 87.8158 78.9119 90.0451C78.3531 92.2745 75.2354 95.1786 76.5295 101.28C77.0884 96.4106 78.8237 91.7465 81.5884 87.6691Z" fill="#E6B8B8"/>
<path d="M92.9404 161.911H94.3816C94.911 161.911 95.411 161.735 95.8227 161.471C96.0874 161.295 96.3227 161.06 96.5286 160.767C96.8227 160.356 96.9698 159.858 96.9698 159.33C96.9698 159.3 96.9698 159.3 96.9698 159.271C96.9698 158.86 96.8521 158.479 96.6757 158.127L96.5286 157.834L94.9404 151.908L94.3521 157.218C93.8521 157.042 93.3227 156.954 92.7639 156.954H92.7051C93.2051 158.156 94.0286 160.562 92.9404 161.911Z" fill="#585858"/>
<path d="M99.1471 154.815C99.2059 154.815 99.2647 154.786 99.3235 154.757C99.4412 154.727 99.5294 154.698 99.6471 154.669C99.7059 154.639 99.7647 154.61 99.8235 154.581C99.9118 154.551 100 154.493 100.059 154.434C100.118 154.405 100.176 154.346 100.235 154.287C100.294 154.229 100.353 154.17 100.441 154.111C100.5 154.053 100.559 153.994 100.618 153.935C100.676 153.877 100.706 153.818 100.765 153.759C100.824 153.701 100.853 153.613 100.912 153.554C100.941 153.495 100.971 153.437 101 153.349C101.029 153.261 101.088 153.173 101.118 153.085C101.147 153.026 101.147 152.938 101.176 152.879C101.206 152.791 101.235 152.703 101.235 152.586C101.235 152.557 101.235 152.557 101.235 152.527C101.235 152.41 101.265 152.263 101.265 152.117C101.265 151.735 101.176 151.383 101.029 151.031L100.912 150.738L99.8823 144.812L98.9412 150.298C98.5 150.093 98.0588 149.946 97.5588 149.887C97.5882 149.917 97.5882 149.946 97.6471 149.975C98.4706 150.122 98.2941 154.522 97 154.786H98.6471C98.7941 154.874 98.9706 154.845 99.1471 154.815Z" fill="#585858"/>
</svg>
