<svg width="180" height="180" viewBox="0 0 180 180" fill="none" xmlns="http://www.w3.org/2000/svg">
<g clip-path="url(#clip0_10076_11309)">
<path fill-rule="evenodd" clip-rule="evenodd" d="M47.1849 95.6758C27.7303 99.6281 15 106.199 15 113.642C15 117.474 16.5624 125.874 24.2909 124.199C33.7101 119.22 49.589 115.421 68.6328 113.779C67.5875 108.477 64.2781 104.683 60.2633 100.985C57.3309 98.2844 54.9901 96.2563 47.1849 95.6758Z" fill="#306694"/>
<path fill-rule="evenodd" clip-rule="evenodd" d="M132.808 95.6758C127.495 103.512 112.429 99.2595 111.359 113.779C130.403 115.421 146.282 119.22 155.701 124.199C163.756 124.726 165.001 117.475 165.001 113.642C165.001 106.199 152.262 99.6281 132.808 95.6758Z" fill="#306694"/>
<path fill-rule="evenodd" clip-rule="evenodd" d="M155.699 124.2C150.788 126.801 144.132 129.068 136.184 130.882C134.704 131.224 134.533 132.062 134.533 133.483V151.141C134.533 151.808 134.662 152.236 135.431 152.065C153.398 148.069 164.999 141.755 164.999 134.655V113.643C164.999 117.476 161.628 121.069 155.699 124.2Z" fill="#83BCDC"/>
<path fill-rule="evenodd" clip-rule="evenodd" d="M89.9954 135.527C61.7032 135.527 37.064 130.95 24.2909 124.2C18.3709 121.069 15 117.476 15 113.643V134.655C15 146.743 48.5794 156.539 89.9954 156.539V164.658C89.9954 164.786 90.0039 164.897 90.0212 165H91.2959L116.072 147.102C117.107 146.581 117.107 145.477 116.072 144.955L90.9965 126.852C90.2693 126.484 89.9954 126.561 89.9954 127.408V135.527Z" fill="#83BCDC"/>
<g filter="url(#filter0_d_10076_11309)">
<path fill-rule="evenodd" clip-rule="evenodd" d="M89.9957 15C61.4468 15 38.3047 38.142 38.3047 66.6912C38.3047 77.428 41.5812 87.4035 47.1851 95.6766C52.5066 103.513 59.924 109.819 68.6333 113.78C75.144 116.74 82.3817 118.383 89.996 118.383C97.6187 118.383 104.848 116.74 111.359 113.78C120.068 109.819 127.494 103.513 132.807 95.6766C138.419 87.4038 141.687 77.428 141.687 66.6912C141.687 38.142 118.545 15 89.9957 15Z" fill="white"/>
</g>
<path fill-rule="evenodd" clip-rule="evenodd" d="M157.762 123.036V140.002C157.762 141.824 156.992 143.595 155.555 145.289C161.569 142.14 165 138.513 165 134.655V113.643C165 117.005 162.399 120.187 157.762 123.036Z" fill="#69B1DA"/>
<path fill-rule="evenodd" clip-rule="evenodd" d="M89.995 15C87.6849 15 85.4007 15.1539 83.168 15.4448C108.688 18.6101 128.434 40.3665 128.434 66.7425C128.434 92.9815 108.893 114.652 83.5699 117.989C85.6746 118.254 87.8218 118.382 89.995 118.382C97.6177 118.382 104.847 116.74 111.358 113.779C120.067 109.818 127.493 103.513 132.806 95.676C138.418 87.4032 141.686 77.4274 141.686 66.6906C141.686 38.142 118.544 15 89.995 15Z" fill="#F5FAFF"/>
<path d="M67.34 64.6003C69.5322 64.958 71.2121 65.7807 72.3796 67.0684C73.5472 68.3323 74.131 69.9061 74.131 71.79C74.131 73.2447 73.7498 74.592 72.9873 75.832C72.2248 77.0482 71.0572 78.0259 69.4845 78.7652C67.9357 79.5044 66.0295 79.874 63.7658 79.874C62.0025 79.874 60.2631 79.6475 58.5475 79.1944C56.8557 78.7175 55.4141 78.0498 54.2227 77.1913L56.4744 72.7558C57.4275 73.4712 58.5236 74.0316 59.7627 74.437C61.0256 74.8186 62.3123 75.0093 63.6228 75.0093C65.0763 75.0093 66.2201 74.7351 67.0541 74.1866C67.8881 73.6143 68.305 72.8154 68.305 71.79C68.305 69.7392 66.7443 68.7138 63.6228 68.7138H60.9779V64.8864L66.1248 59.0559H55.4736V54.4058H72.9873V58.1617L67.34 64.6003Z" fill="#474748"/>
<path d="M88.8495 63.7418C90.446 63.7418 91.8995 64.0637 93.21 64.7076C94.5206 65.3514 95.5571 66.2695 96.3196 67.4619C97.0821 68.6303 97.4633 69.9896 97.4633 71.5396C97.4633 73.2089 97.0463 74.6755 96.2124 75.9393C95.3784 77.2032 94.2346 78.1809 92.7811 78.8725C91.3514 79.5402 89.755 79.874 87.9917 79.874C84.489 79.874 81.7487 78.8009 79.771 76.6547C77.7933 74.5085 76.8044 71.4442 76.8044 67.4619C76.8044 64.6241 77.3405 62.1917 78.4128 60.1648C79.4851 58.1378 80.9743 56.5997 82.8806 55.5504C84.8106 54.5012 87.0386 53.9766 89.5643 53.9766C90.8987 53.9766 92.1735 54.1316 93.3887 54.4416C94.6278 54.7277 95.6762 55.145 96.534 55.6935L94.3895 59.9502C93.1505 59.1155 91.5897 58.6982 89.7073 58.6982C87.5866 58.6982 85.9067 59.3182 84.6677 60.5582C83.4286 61.7983 82.7614 63.5987 82.6661 65.9595C84.1434 64.481 86.2046 63.7418 88.8495 63.7418ZM87.67 75.5459C88.9091 75.5459 89.9098 75.212 90.6723 74.5443C91.4587 73.8766 91.8518 72.9704 91.8518 71.8258C91.8518 70.6812 91.4587 69.775 90.6723 69.1073C89.9098 68.4157 88.8852 68.0699 87.5985 68.0699C86.3356 68.0699 85.2991 68.4276 84.489 69.143C83.6788 69.8346 83.2737 70.7288 83.2737 71.8258C83.2737 72.9227 83.6669 73.817 84.4532 74.5085C85.2395 75.2001 86.3118 75.5459 87.67 75.5459Z" fill="#474748"/>
<path d="M110.285 79.874C108.212 79.874 106.365 79.3613 104.745 78.3359C103.124 77.3105 101.85 75.832 100.92 73.9005C100.015 71.945 99.5621 69.62 99.5621 66.9253C99.5621 64.2306 100.015 61.9175 100.92 59.9859C101.85 58.0305 103.124 56.5401 104.745 55.5147C106.365 54.4893 108.212 53.9766 110.285 53.9766C112.358 53.9766 114.204 54.4893 115.825 55.5147C117.445 56.5401 118.708 58.0305 119.613 59.9859C120.543 61.9175 121.007 64.2306 121.007 66.9253C121.007 69.62 120.543 71.945 119.613 73.9005C118.708 75.832 117.445 77.3105 115.825 78.3359C114.204 79.3613 112.358 79.874 110.285 79.874ZM110.285 74.9736C111.81 74.9736 113.001 74.3178 113.859 73.0062C114.741 71.6946 115.181 69.6677 115.181 66.9253C115.181 64.1829 114.741 62.156 113.859 60.8444C113.001 59.5328 111.81 58.8771 110.285 58.8771C108.784 58.8771 107.592 59.5328 106.71 60.8444C105.853 62.156 105.424 64.1829 105.424 66.9253C105.424 69.6677 105.853 71.6946 106.71 73.0062C107.592 74.3178 108.784 74.9736 110.285 74.9736Z" fill="#474748"/>
<path d="M121.928 50.3877C121.042 51.2741 121.042 52.7113 121.928 53.5979C122.371 54.0413 122.952 54.2629 123.532 54.2629C124.112 54.2629 124.693 54.0413 125.136 53.5979L125.144 53.5894C126.03 52.7031 126.026 51.27 125.14 50.3836C124.254 49.4967 122.814 49.5014 121.928 50.3877Z" fill="#474748"/>
</g>
<defs>
<filter id="filter0_d_10076_11309" x="14.3047" y="-9" width="151.383" height="151.383" filterUnits="userSpaceOnUse" color-interpolation-filters="sRGB">
<feFlood flood-opacity="0" result="BackgroundImageFix"/>
<feColorMatrix in="SourceAlpha" type="matrix" values="0 0 0 0 0 0 0 0 0 0 0 0 0 0 0 0 0 0 127 0" result="hardAlpha"/>
<feOffset/>
<feGaussianBlur stdDeviation="12"/>
<feColorMatrix type="matrix" values="0 0 0 0 0.702778 0 0 0 0 0.839667 0 0 0 0 0.916667 0 0 0 0.25 0"/>
<feBlend mode="normal" in2="BackgroundImageFix" result="effect1_dropShadow_10076_11309"/>
<feBlend mode="normal" in="SourceGraphic" in2="effect1_dropShadow_10076_11309" result="shape"/>
</filter>
<clipPath id="clip0_10076_11309">
<rect width="180" height="180" fill="white"/>
</clipPath>
</defs>
</svg>
